PathFileType	4	(X/Y/Z)	C:\Users\Basilio\Documents\Thesis Gigler\squatting_fais\c3dfiles\077\SLS_back_pre2\markers_experimental.trc
DataRate	CameraRate	NumFrames	NumMarkers	Units	OrigDataRate	OrigDataStartFrame	OrigNumFrames
200.000000	200.000000	4	60	mm	200.000000	384	1537
Frame#	Time	FHD			RBHD			C7			T10			CLAV			LSHO			LUUPA			LMUPA			LDUPA			LLEP			LMEP			LRAD			LUL			LRFIN			RSHO			RUPA1			RMUPA			RDUPA			RLEP			RMEP			RRAD			RUL			RUFIN			LASI			RASI			USACR			LSACR			RSACR			LTHI1			LTHI2			LTHI3			LTHI4			LLFC			LMFC			LTIB1			LTIB2			LTIB3			LTIB4			LLMAL			LHEE			LMT1			LMT2			LMT5			RTHI			RTHI2			RTHI3			RTHI4			RLFC			RMFC			RTIB1			RTIB2			RTIB3			RTIB4			RLMAL			RMMAL			RHEE			RMT1			RMT2			RMT5			LBHD			
		X1	Y1	Z1	X2	Y2	Z2	X3	Y3	Z3	X4	Y4	Z4	X5	Y5	Z5	X6	Y6	Z6	X7	Y7	Z7	X8	Y8	Z8	X9	Y9	Z9	X10	Y10	Z10	X11	Y11	Z11	X12	Y12	Z12	X13	Y13	Z13	X14	Y14	Z14	X15	Y15	Z15	X16	Y16	Z16	X17	Y17	Z17	X18	Y18	Z18	X19	Y19	Z19	X20	Y20	Z20	X21	Y21	Z21	X22	Y22	Z22	X23	Y23	Z23	X24	Y24	Z24	X25	Y25	Z25	X26	Y26	Z26	X27	Y27	Z27	X28	Y28	Z28	X29	Y29	Z29	X30	Y30	Z30	X31	Y31	Z31	X32	Y32	Z32	X33	Y33	Z33	X34	Y34	Z34	X35	Y35	Z35	X36	Y36	Z36	X37	Y37	Z37	X38	Y38	Z38	X39	Y39	Z39	X40	Y40	Z40	X41	Y41	Z41	X42	Y42	Z42	X43	Y43	Z43	X44	Y44	Z44	X45	Y45	Z45	X46	Y46	Z46	X47	Y47	Z47	X48	Y48	Z48	X49	Y49	Z49	X50	Y50	Z50	X51	Y51	Z51	X52	Y52	Z52	X53	Y53	Z53	X54	Y54	Z54	X55	Y55	Z55	X56	Y56	Z56	X57	Y57	Z57	X58	Y58	Z58	X59	Y59	Z59	X60	Y60	Z60	

385	1.92	-279.1311645507813	1861.3662109375	-969.3157958984377	-418.5892639160157	1742.791748046875	-889.2863769531252	-457.2950744628907	1599.2099609375	-973.7360839843752	-430.7492675781251	1261.656005859375	-959.9384765625002	-291.8800659179688	1562.900024414063	-976.109802246094	-324.9271545410157	1600.243041992188	-1151.095703125	-162.1110992431641	1538.250854492188	-1267.6416015625	-130.5547790527344	1572.088989257813	-1249.360961914063	-95.06483459472658	1534.2578125	-1281.524780273438	-30.82731437683106	1543.293701171875	-1285.63623046875	-22.42479515075684	1478.315551757813	-1252.325073242188	270.7072143554688	1584.828491210938	-1194.673095703125	267.7569274902344	1579.49072265625	-1274.453002929688	363.6959838867188	1612.006225585938	-1212.214233398438	-304.9854125976563	1594.384033203125	-807.6463623046877	-143.5244140625	1547.844970703125	-701.6431274414064	-116.7463836669922	1578.813354492188	-730.2782592773439	-73.47145080566408	1549.49853515625	-699.4658203125001	-8.165601730346681	1556.531127929688	-708.3264160156251	-3.7880756855011	1487.308715820313	-742.9628906250001	271.0199584960938	1590.10888671875	-816.1190185546877	285.6327209472657	1596.156005859375	-737.5638427734376	364.6029968261719	1618.279418945313	-819.820007324219	-239.0158996582032	1065.996826171875	-1102.890502929688	-222.1072235107422	1098.266479492188	-816.9422607421877	-433.7721557617189	1162.523315429688	-953.9466552734377	-439.8311767578126	1130.9248046875	-981.3752441406252	-439.3572692871095	1130.381958007813	-925.6622314453127	-301.7054138183594	854.8523559570315	-1149.421142578125	-271.4283142089844	776.3599243164065	-1146.512939453125	-223.4102020263672	778.9761962890627	-1143.976318359375	-299.8760070800782	724.1923828125001	-1131.790893554688	-268.9648132324219	577.0272827148439	-1110.04736328125	-256.4718322753907	554.4567871093751	-978.8211669921877	-252.1914367675782	351.2304992675782	-1041.685668945313	-286.2232055664063	309.3559265136719	-1113.937622070313	-256.2329101562501	304.1123046875001	-1078.364501953125	-271.2340087890626	226.4139099121094	-1047.918334960938	-339.8319702148438	112.809440612793	-1094.01611328125	-398.4221801757814	81.27915191650392	-1044.098754882813	-189.1829376220703	56.2018280029297	-1021.34619140625	-183.2820739746094	59.88010787963869	-1064.374755859375	-313.3923950195313	123.8402938842774	-1008.765258789063	-267.0555725097657	769.282653808594	-722.7183837890626	-221.2112121582032	720.3129272460939	-715.8687133789064	-188.0708465576172	725.6354370117189	-720.6791381835939	-239.0181884765626	639.2048950195314	-721.7748413085939	-235.868148803711	575.4468383789064	-714.7434082031251	-203.0365142822266	546.7301025390626	-839.6445922851565	-212.1664276123047	433.353729248047	-722.1294555664064	-292.3700561523438	370.6349792480469	-686.5034179687501	-250.9910430908204	356.2265319824219	-706.5735473632814	-255.7252655029297	311.0675659179688	-744.1708374023439	-364.2622985839844	151.2469940185547	-697.6362304687501	-330.8550720214844	149.1384735107422	-784.0012207031252	-428.3980712890626	126.3190536499024	-754.8873291015626	-216.2529754638672	58.58968734741212	-737.8085327148439	-221.0824432373047	56.96361160278322	-699.5072021484376	-247.6674804687501	43.95521545410157	-653.8265380859376	-417.3970642089845	1749.267333984375	-1035.688842773438	
386	1.925	-278.5917053222657	1861.247192382813	-970.4729614257815	-418.5125122070314	1742.154052734375	-890.5139770507815	-457.0460510253907	1599.1025390625	-975.3841552734377	-430.806854248047	1261.814819335938	-962.1254882812502	-291.5574340820313	1563.10107421875	-977.5838623046877	-323.9507446289063	1600.35693359375	-1152.54296875	-161.7161560058594	1538.747436523438	-1269.35693359375	-129.8972473144532	1572.283935546875	-1250.620361328125	-94.5112991333008	1534.72509765625	-1283.168823242188	-30.21634101867676	1543.698608398438	-1287.151000976563	-21.98834991455078	1478.59130859375	-1254.027587890625	271.2904052734376	1584.806762695313	-1195.880493164063	268.1590881347657	1579.777709960938	-1275.763793945313	364.7931518554688	1612.0966796875	-1213.798706054688	-304.9543457031251	1594.387084960938	-809.1088867187502	-143.6640777587891	1547.5859375	-703.0110473632814	-116.8932418823242	1578.162475585938	-731.5499877929689	-73.66552734375001	1549.158325195313	-700.6688842773439	-8.326897621154787	1556.216674804688	-709.7361450195314	-3.811336755752564	1486.716918945313	-744.1811523437501	271.0118408203126	1589.966552734375	-817.6331787109377	285.1824340820313	1595.592651367188	-739.0922241210939	364.5600891113282	1618.15283203125	-820.9710693359377	-239.3871459960938	1065.559814453125	-1104.156127929688	-222.7098693847657	1098.455200195313	-818.238220214844	-433.9541320800782	1162.76123046875	-956.0705566406252	-439.952362060547	1131.296142578125	-983.634704589844	-439.5006713867189	1130.871337890625	-927.852478027344	-301.1373291015626	854.4544677734377	-1150.401000976563	-271.9707641601563	776.1524658203127	-1147.583740234375	-223.4696350097657	779.3745727539065	-1145.097412109375	-299.5640258789063	723.9028930664064	-1132.750122070313	-270.1608886718751	577.5174560546876	-1111.209716796875	-256.2607116699219	554.4296875000001	-979.5483398437502	-252.7190551757813	351.2127380371094	-1042.1259765625	-286.0976562500001	309.0335998535157	-1114.201904296875	-255.8524780273438	303.3196411132813	-1078.2080078125	-272.0808715820313	225.6465759277344	-1048.215576171875	-339.9946289062501	112.6477661132813	-1093.99072265625	-398.4228820800782	81.16709136962892	-1044.045288085938	-189.2276763916016	56.12218475341798	-1021.352661132813	-183.1438446044922	60.04687881469728	-1064.33056640625	-313.4037475585938	123.7272109985352	-1008.674560546875	-263.8097839355469	770.644714355469	-722.7313842773439	-217.1730651855469	722.4437866210939	-715.7608642578126	-184.2114562988282	727.8724365234376	-720.4888305664064	-233.9853515625001	640.8097534179689	-721.3464355468751	-230.8385467529297	577.2604980468751	-714.0400390625001	-197.006576538086	548.0278930664064	-838.2570800781252	-208.1781311035157	434.9210815429689	-721.4093017578126	-288.5741271972657	372.8611450195313	-685.9398803710939	-247.7810974121094	358.3644104003907	-705.9184570312501	-252.2068176269532	312.8672180175782	-742.9588623046876	-361.8589172363282	154.199203491211	-696.5087890625001	-328.8874206542969	151.6777038574219	-782.9592895507815	-426.6636657714845	130.3104553222657	-753.7379150390626	-216.2197570800782	59.59212112426759	-738.1323852539064	-220.5617370605469	56.8517532348633	-699.3254394531251	-247.1761932373047	44.09173965454102	-653.7652587890626	-416.7997436523439	1749.318115234375	-1037.3466796875	
387	1.93	-278.7180480957032	1861.692016601563	-972.203796386719	-418.3093872070314	1741.733032226563	-892.0354003906252	-456.9680480957032	1599.367553710938	-977.1043701171877	-430.8775329589845	1261.824951171875	-964.2976074218752	-291.3370056152344	1563.121948242188	-979.1951293945315	-323.6381530761719	1600.578002929688	-1154.016967773438	-161.5748443603516	1538.958740234375	-1270.831176757813	-129.1885375976563	1572.517211914063	-1252.02197265625	-94.07212829589845	1535.091796875	-1284.533813476563	-29.53840255737305	1543.7666015625	-1288.14501953125	-21.777738571167	1478.847290039063	-1255.474365234375	271.5969848632813	1585.04443359375	-1197.395874023438	268.6166687011719	1579.739624023438	-1277.1103515625	364.9427185058594	1612.183227539063	-1214.78955078125	-305.0988159179688	1594.22998046875	-810.5755004882815	-143.7256317138672	1547.430541992188	-704.1370849609376	-116.931625366211	1578.28564453125	-732.7480468750001	-73.89242553710939	1548.863525390625	-702.0108032226564	-8.299471855163576	1556.10498046875	-710.6806640625001	-4.14738941192627	1486.780029296875	-745.5435791015626	270.8243713378907	1589.82861328125	-818.5464477539065	285.5086059570313	1595.775146484375	-739.5509643554689	364.5381164550782	1617.860229492188	-822.1311035156252	-239.4304809570313	1064.9912109375	-1105.293823242188	-223.3342437744141	1098.704711914063	-819.5672607421877	-434.3167419433595	1162.914794921875	-958.3125000000002	-440.0418701171876	1131.511352539063	-985.7542114257815	-439.8417968750001	1131.09814453125	-929.9542236328127	-301.1903686523438	854.2491455078127	-1151.694702148438	-271.8900146484376	775.8868408203127	-1148.64208984375	-223.3263702392579	779.1036376953127	-1146.13427734375	-298.8875732421876	723.4307250976564	-1133.630737304688	-269.9758605957032	577.1334228515626	-1111.813110351563	-256.3284606933594	554.4146118164064	-980.1841430664065	-252.6911010742188	351.1194458007813	-1042.42529296875	-286.0504760742188	308.7467651367188	-1114.356323242188	-255.6611328125001	303.2423400878907	-1078.281127929688	-271.3925781250001	225.2546844482422	-1047.838500976563	-339.8344421386719	112.4994125366211	-1093.898681640625	-398.343231201172	81.10887145996095	-1044.01904296875	-189.1980438232422	56.09929656982423	-1021.322631835938	-183.0550384521485	59.94532394409181	-1064.27392578125	-313.4423828125001	123.6584167480469	-1008.585205078125	-260.4548034667969	771.8266601562502	-722.7425537109376	-213.2335052490235	724.4360351562501	-715.7954711914064	-180.3702239990235	730.2711791992189	-720.3591308593751	-229.0262756347657	642.5133666992189	-720.8545532226564	-225.7772369384766	579.2270507812501	-713.4286499023439	-191.9990844726563	550.0286865234376	-837.4052734375002	-203.8933715820313	437.0666809082032	-720.3821411132814	-284.6073913574219	375.6300354003907	-684.9027099609376	-243.6475219726563	360.8217163085938	-704.3196411132814	-249.3648071289063	315.1709289550782	-742.3699340820314	-359.4978332519532	156.9458618164063	-695.3888549804689	-326.3324890136719	154.3333740234375	-781.842468261719	-424.684051513672	134.3475646972657	-752.6398315429689	-214.9320068359376	59.68900680541994	-737.4697265625001	-219.5960693359376	57.4906463623047	-698.8739013671876	-246.6350555419922	44.49163055419923	-653.5999755859376	-416.5327758789064	1749.482055664063	-1038.92431640625	
388	1.935	-278.2832946777344	1861.603637695313	-973.2940673828127	-417.9842529296876	1741.915649414063	-893.6455688476565	-456.5976867675782	1599.546875	-978.7495117187502	-431.0160217285157	1261.99169921875	-966.4277343750002	-291.3389282226563	1563.02880859375	-980.6067504882815	-323.0773315429688	1601.002197265625	-1155.509155273438	-161.3012084960938	1539.593872070313	-1272.2783203125	-128.7816467285157	1572.863037109375	-1253.513549804688	-93.81359863281251	1535.335205078125	-1285.87109375	-29.17885398864747	1544.231689453125	-1289.91015625	-21.29288673400879	1479.167114257813	-1256.98095703125	272.0674133300782	1584.963500976563	-1198.5771484375	269.1209411621094	1579.900512695313	-1278.40185546875	365.0859680175782	1612.09228515625	-1216.283569335938	-305.0007934570313	1594.220703125	-812.0004882812502	-144.1190185546875	1547.0283203125	-705.7233886718751	-117.2574234008789	1578.011108398438	-734.1292114257814	-74.04395294189455	1548.538452148438	-703.2729492187501	-8.668765068054201	1555.548706054688	-712.0013427734376	-4.31228256225586	1486.524047851563	-746.9129638671876	270.8007507324219	1589.554931640625	-819.732116699219	285.3106384277344	1595.317016601563	-740.7093505859376	364.3791809082032	1617.796752929688	-823.042419433594	-239.7119598388672	1064.3017578125	-1106.603515625	-223.9355621337891	1099.085205078125	-820.968444824219	-434.2690429687501	1163.398681640625	-960.3594360351565	-440.3038940429689	1131.770751953125	-987.8242187500002	-440.276580810547	1131.306396484375	-932.0579223632815	-301.0633239746094	854.1494140625002	-1152.851196289063	-271.7662048339844	775.9251098632815	-1149.734252929688	-222.9647674560547	778.5520629882815	-1146.781616210938	-298.6885375976563	723.2741699218751	-1134.689697265625	-269.0303344726563	576.6261596679689	-1112.351684570313	-256.3409118652344	554.3903198242189	-980.7813110351565	-252.7181243896485	351.0340270996094	-1042.732543945313	-285.8980407714844	308.4810180664063	-1114.585327148438	-255.5992431640626	303.1811218261719	-1078.488891601563	-271.1972351074219	225.0668182373047	-1047.8623046875	-340.0766906738282	112.4702987670899	-1093.829711914063	-398.1977844238282	81.0377655029297	-1044.012084960938	-189.2294006347657	56.06533813476564	-1021.30029296875	-183.1015167236328	59.99602508544923	-1064.255737304688	-313.4623718261719	123.590690612793	-1008.494689941406	-257.3012695312501	773.3602294921877	-722.7054443359376	-209.3284149169922	726.5231933593751	-715.6105957031251	-176.6305084228516	732.3510742187501	-720.4277954101564	-224.1038208007813	644.3645019531251	-720.4503784179689	-220.7246704101563	581.3388671875001	-712.9288940429689	-186.6710815429688	552.1290893554689	-836.463806152344	-199.802474975586	438.8402099609376	-719.8028564453126	-280.9267883300782	378.4235839843751	-684.1062622070314	-239.9804840087891	363.0060729980469	-703.4876098632814	-245.9468994140626	317.5468139648438	-741.4150390625001	-357.2749633789063	159.9760894775391	-694.2846069335939	-323.5700683593751	157.1931915283203	-780.592956542969	-422.7239379882814	138.3990325927735	-751.5449829101564	-214.2017974853516	60.39715576171876	-737.2262573242189	-218.6778717041016	58.1231155395508	-698.5604858398439	-245.8348541259766	45.24368286132813	-653.3639526367189	-416.3323974609376	1749.314819335938	-1040.391845703125	
